<svg xmlns="http://www.w3.org/2000/svg" xmlns:xlink="http://www.w3.org/1999/xlink" version="1.2" baseProfile="tiny" x="0px" y="0px" viewBox="0 0 100 125" xml:space="preserve"><g><path d="M31.5595703,2.6152344H18.0732422c-5.7163086,0-10.3662109,4.6499023-10.3662109,10.3662109v18.1655273   c0,5.7163086,4.6499023,10.3662109,10.3662109,10.3662109h13.4863281c5.7163086,0,10.3666992-4.6499023,10.3666992-10.3662109   V12.9814453C41.9262695,7.2651367,37.2758789,2.6152344,31.5595703,2.6152344z M37.1567383,31.1469727   c0,3.0859375-2.5112305,5.5966797-5.597168,5.5966797H18.0732422c-3.0859375,0-5.5966797-2.5107422-5.5966797-5.5966797V12.9814453   c0-3.0859375,2.5107422-5.5966797,5.5966797-5.5966797h13.4863281c3.0859375,0,5.597168,2.5107422,5.597168,5.5966797V31.1469727z"/><path d="M31.5595703,46.3764648H18.0732422c-5.7163086,0-10.3662109,4.6503906-10.3662109,10.3666992v30.2753906   c0,5.7163086,4.6499023,10.3662109,10.3662109,10.3662109h13.4863281c5.7163086,0,10.3666992-4.6499023,10.3666992-10.3662109   V56.7431641C41.9262695,51.0268555,37.2758789,46.3764648,31.5595703,46.3764648z M37.1567383,87.0185547   c0,3.0859375-2.5112305,5.5966797-5.597168,5.5966797H18.0732422c-3.0859375,0-5.5966797-2.5107422-5.5966797-5.5966797V56.7431641   c0-3.0859375,2.5107422-5.597168,5.5966797-5.597168h13.4863281c3.0859375,0,5.597168,2.5112305,5.597168,5.597168V87.0185547z"/><path d="M81.9267578,58.4868164H68.4404297c-5.7163086,0-10.3666992,4.6499023-10.3666992,10.3662109v18.1655273   c0,5.7163086,4.6503906,10.3662109,10.3666992,10.3662109h13.4863281c5.7163086,0,10.3662109-4.6499023,10.3662109-10.3662109   V68.8530273C92.2929688,63.1367188,87.6430664,58.4868164,81.9267578,58.4868164z M87.5234375,87.0185547   c0,3.0859375-2.5107422,5.5966797-5.5966797,5.5966797H68.4404297c-3.0859375,0-5.597168-2.5107422-5.597168-5.5966797V68.8530273   c0-3.0859375,2.5112305-5.5966797,5.597168-5.5966797h13.4863281c3.0859375,0,5.5966797,2.5107422,5.5966797,5.5966797V87.0185547z   "/><path d="M81.9267578,2.6152344H68.4404297c-5.7163086,0-10.3666992,4.6499023-10.3666992,10.3662109v30.2753906   c0,5.7163086,4.6503906,10.3666992,10.3666992,10.3666992h13.4863281c5.7163086,0,10.3662109-4.6503906,10.3662109-10.3666992   V12.9814453C92.2929688,7.2651367,87.6430664,2.6152344,81.9267578,2.6152344z M87.5234375,43.2568359   c0,3.0859375-2.5107422,5.597168-5.5966797,5.597168H68.4404297c-3.0859375,0-5.597168-2.5112305-5.597168-5.597168V12.9814453   c0-3.0859375,2.5112305-5.5966797,5.597168-5.5966797h13.4863281c3.0859375,0,5.5966797,2.5107422,5.5966797,5.5966797V43.2568359z   "/></g><text x="0" y="115" fill="#000000" font-size="5px" font-weight="bold" font-family="'Helvetica Neue', Helvetica, Arial-Unicode, Arial, Sans-serif">Created by sahara junadir</text><text x="0" y="120" fill="#000000" font-size="5px" font-weight="bold" font-family="'Helvetica Neue', Helvetica, Arial-Unicode, Arial, Sans-serif">from the Noun Project</text></svg>