<svg xmlns="http://www.w3.org/2000/svg" xmlns:xlink="http://www.w3.org/1999/xlink" xml:space="preserve" version="1.1" style="shape-rendering:geometricPrecision;text-rendering:geometricPrecision;image-rendering:optimizeQuality;" viewBox="0 0 846.66 1058.325" x="0px" y="0px" fill-rule="evenodd" clip-rule="evenodd"><defs><style type="text/css">
   
    .fil0 {fill:black;fill-rule:nonzero}
   
  </style></defs><g><path class="fil0" d="M75.97 767.15c-6.77,-14.64 -10.09,-33.89 -8.05,-51.98 1.7,-15.04 7.14,-29.3 17.43,-39.4 10.69,-10.46 25.33,-16.91 41.37,-16.91 16.07,0 30.73,6.54 41.42,17.12 11.22,11.1 16.92,26.28 17.02,41.49 0.1,15.3 -5.46,30.66 -16.78,41.98 -10.66,10.66 -25.4,17.26 -41.66,17.26l-0.62 0 3.03 2.08c10.05,6.46 21.48,9.73 32.84,9.8 11.46,0.06 22.96,-3.06 33.02,-9.36 12.28,-7.69 20.17,-18.12 24.19,-29.83 4.52,-13.19 4.28,-28.31 0.03,-43.41l-15.16 -53.73c-17.27,1.27 -34.52,-0.4 -51.01,-4.82 -29.08,-7.79 -55.92,-24.14 -76.55,-47.96 -68.98,-79.61 -23.54,-179.34 36.78,-269.05l-41.4 -146.77c-3.84,-19.69 -0.47,-40.61 8.84,-58.34 8.88,-16.9 23.1,-31.02 41.2,-39.65 18.13,-8.64 38.04,-10.79 56.74,-7.05 18.65,3.73 36.2,13.41 49.65,28.42 13.08,14.6 21.91,30.89 24.28,49.14 2.38,18.35 -1.79,37.99 -14.73,58.89 -13.05,20.51 -29.09,41.13 -43.66,60.69 -14.35,19.27 -29.56,39.69 -44.11,60.69l15.99 56.66c11.06,-9.37 23.44,-16.98 36.7,-21.97 33.42,-12.6 71.69,-9.05 108.19,22.8 15.78,13.77 26.55,30.56 32.9,48.94 8.97,25.9 9.05,54.74 2.1,82.39 -6.81,27.17 -20.51,53.5 -39.2,74.92 -17.24,19.76 -38.89,35.47 -63.51,43.99l-5.83 1.89 14.33 50.8c6.08,21.55 6.23,43.65 -0.57,63.51 -6.41,18.68 -18.91,35.25 -38.33,47.41 -15.62,9.78 -33.37,14.61 -51.02,14.52 -17.77,-0.1 -35.5,-5.15 -50.96,-15.08 -15.5,-9.96 -27.45,-24 -34.9,-40.08zm258.18 -72.81l25.16 -25.16 23.94 23.94 -25.16 25.16 -23.94 -23.94zm23.94 36.98l25.16 25.16 -23.94 23.94 -25.16 -25.16 23.94 -23.94zm-86.01 25.15l25.16 -25.15 23.8 23.94 -25.16 25.15 -23.8 -23.94zm23.8 -87.28l25.16 25.15 -23.8 23.94 -25.16 -25.15 23.8 -23.94zm459.84 -310.44l25.16 -25.16 23.94 23.94 -25.16 25.16 -23.94 -23.94zm23.94 36.98l25.16 25.16 -23.94 23.94 -25.16 -25.16 23.94 -23.94zm-86.01 25.15l25.16 -25.15 23.8 23.94 -25.16 25.15 -23.8 -23.94zm23.8 -87.28l25.16 25.15 -23.8 23.94 -25.16 -25.15 23.8 -23.94zm-13.75 273.44l25.16 -25.16 23.94 23.94 -25.16 25.16 -23.94 -23.94zm23.94 36.98l25.16 25.16 -23.94 23.94 -25.16 -25.16 23.94 -23.94zm-86.01 25.15l25.16 -25.15 23.8 23.94 -25.16 25.15 -23.8 -23.94zm23.8 -87.28l25.16 25.15 -23.8 23.94 -25.16 -25.15 23.8 -23.94zm-306.12 -490.04l25.16 -25.16 23.94 23.94 -25.16 25.16 -23.94 -23.94zm23.94 36.98l25.16 25.16 -23.94 23.94 -25.16 -25.16 23.94 -23.94zm-86.01 25.15l25.16 -25.15 23.8 23.94 -25.16 25.15 -23.8 -23.94zm23.8 -87.28l25.16 25.15 -23.8 23.94 -25.16 -25.15 23.8 -23.94zm134.05 387.68l25.16 -25.16 23.94 23.94 -25.16 25.16 -23.94 -23.94zm23.94 36.98l25.16 25.16 -23.94 23.94 -25.16 -25.16 23.94 -23.94zm-86.01 25.15l25.16 -25.15 23.8 23.94 -25.16 25.15 -23.8 -23.94zm23.8 -87.28l25.16 25.15 -23.8 23.94 -25.16 -25.15 23.8 -23.94zm-61.74 -125.14c0.19,6.63 2.96,12.61 7.33,16.98 4.53,4.53 10.81,7.34 17.73,7.34 6.92,0 13.19,-2.81 17.72,-7.34 4.53,-4.53 7.34,-10.8 7.34,-17.72 0,-6.92 -2.81,-13.2 -7.34,-17.73 -4.53,-4.53 -10.8,-7.34 -17.72,-7.34 -6.92,0 -13.2,2.81 -17.73,7.34 -5.05,5.05 -7.39,11.39 -7.33,18.47zm-27.28 46.93c-4.91,-14.8 -6.5,-30.75 -6.58,-46.47 -0.14,-16.31 5.67,-31.29 17.25,-42.87 10.66,-10.66 25.4,-17.26 41.67,-17.26 16.27,0 31,6.6 41.66,17.26 10.66,10.66 17.26,25.4 17.26,41.67 0,16.27 -6.6,31 -17.26,41.66 -10.66,10.66 -25.39,17.26 -41.66,17.26 -2.19,0 -4.35,-0.12 -6.48,-0.35l3.28 2.48c9.09,6.18 19.71,9.28 30.38,9.28 10.65,0 21.28,-3.1 30.37,-9.28 8.27,-5.62 13.21,-14.88 16.29,-25.03 3.53,-11.63 4.77,-25.06 5.64,-36.35l12.13 -201.86c0.44,-7.62 5.88,-13.76 12.95,-15.44l207.78 -60.72c8.94,-2.59 18.31,2.56 20.9,11.5 0.55,1.9 0.75,3.82 0.64,5.69l-12.13 202.4c-0.98,12.9 -2.43,28.36 -7.06,43.61 -5.08,16.73 -13.89,32.44 -29.65,43.15 -14.93,10.15 -32.16,15.24 -49.29,15.24 -17.14,0 -34.36,-5.09 -49.3,-15.24 -15.44,-10.49 -24.79,-24.92 -30.22,-41.28 -4.91,-14.8 -6.5,-30.75 -6.58,-46.47 -0.14,-16.31 5.67,-31.29 17.25,-42.87 10.66,-10.66 25.4,-17.26 41.67,-17.26 16.27,0 31,6.6 41.66,17.26 10.66,10.66 17.26,25.4 17.26,41.67 0,16.27 -6.6,31 -17.26,41.66 -10.66,10.66 -25.39,17.26 -41.66,17.26 -2.19,0 -4.35,-0.12 -6.48,-0.35l3.28 2.48c9.09,6.18 19.71,9.28 30.38,9.28 10.65,0 21.28,-3.1 30.37,-9.28 8.27,-5.62 13.21,-14.88 16.29,-25.03 3.53,-11.63 4.77,-25.06 5.64,-36.35l10.7 -177.95 -174.13 50.88 -11.42 190.54c-1,12.9 -2.45,28.36 -7.08,43.61 -5.08,16.73 -13.89,32.44 -29.65,43.15 -14.93,10.15 -32.16,15.24 -49.29,15.24 -17.14,0 -34.36,-5.09 -49.3,-15.24 -15.44,-10.49 -24.79,-24.92 -30.22,-41.28zm235.85 -107.88c0.19,6.63 2.96,12.61 7.33,16.98 4.53,4.53 10.81,7.34 17.73,7.34 6.92,0 13.19,-2.81 17.72,-7.34 4.53,-4.53 7.34,-10.8 7.34,-17.72 0,-6.92 -2.81,-13.2 -7.34,-17.73 -4.53,-4.53 -10.8,-7.34 -17.72,-7.34 -6.92,0 -13.2,2.81 -17.73,7.34 -5.13,5.13 -7.33,11.33 -7.33,18.47zm-126.66 408.43c0.2,6.62 2.96,12.6 7.33,16.97 4.53,4.53 10.81,7.34 17.73,7.34 6.92,0 13.19,-2.81 17.72,-7.34 4.53,-4.53 7.34,-10.8 7.34,-17.72 0,-6.92 -2.81,-13.2 -7.34,-17.73 -4.53,-4.53 -10.8,-7.34 -17.72,-7.34 -6.92,0 -13.2,2.81 -17.73,7.34 -5.06,5.06 -7.39,11.39 -7.33,18.48zm-27.28 46.92c-4.92,-14.8 -6.5,-30.75 -6.58,-46.47 -0.14,-16.31 5.67,-31.29 17.25,-42.87 10.66,-10.66 25.4,-17.26 41.67,-17.26 16.27,0 31,6.6 41.66,17.26 10.66,10.66 17.26,25.4 17.26,41.67 0,16.27 -6.6,31 -17.26,41.66 -10.66,10.66 -25.39,17.26 -41.66,17.26 -2.19,0 -4.35,-0.12 -6.48,-0.35l3.28 2.48c9.09,6.18 19.71,9.28 30.38,9.28 10.65,0 21.28,-3.1 30.37,-9.28 8.27,-5.62 13.21,-14.88 16.29,-25.03 3.53,-11.63 4.77,-25.06 5.64,-36.35l12.13 -201.86c0.54,-9.31 8.54,-16.41 17.85,-15.87 4.95,0.29 9.27,2.68 12.16,6.26l44.3 50.6c6.13,7.01 5.42,17.68 -1.59,23.81 -7.01,6.13 -17.68,5.42 -23.81,-1.59l-17.65 -20.16 -9.67 161.33c-1,12.9 -2.45,28.36 -7.08,43.61 -5.08,16.73 -13.89,32.44 -29.65,43.15 -14.93,10.15 -32.16,15.24 -49.29,15.24 -17.14,0 -34.36,-5.09 -49.3,-15.24 -15.44,-10.49 -24.79,-24.92 -30.22,-41.28zm-215.07 -79.6l-9.36 -33.18c-4.79,-0.38 -9.53,-1.19 -14.16,-2.43 -15.53,-4.16 -29.82,-13.1 -40.56,-26.17 -24.03,-29.21 -22.77,-71.6 -5.67,-109.13 3.98,-8.74 8.83,-17.25 14.41,-25.27l-13.79 -48.89c-44.73,72.45 -71.94,147.67 -23.5,203.58 16.06,18.55 37.02,31.29 59.75,37.38 10.68,2.86 21.74,4.26 32.88,4.11zm-19.71 -69.89l-22.45 -79.58c-9.22,24.41 -9.49,49.7 4.14,66.27 4.97,6.05 11.31,10.55 18.31,13.31zm-70.28 -373.6l33.65 119.28c9.68,-13.38 19.39,-26.43 28.77,-39.02 15.73,-21.12 30.48,-40.91 42.34,-58.77 8.33,-13.59 11.09,-25.65 9.71,-36.35 -1.42,-10.93 -7.24,-21.29 -15.96,-31.02 -8.35,-9.31 -19.36,-15.35 -31.13,-17.7 -11.73,-2.35 -24.23,-1 -35.58,4.41 -11.37,5.42 -20.29,14.27 -25.84,24.83 -5.4,10.29 -7.66,22.26 -5.96,34.34zm71.83 254.62l33.38 118.33c7.96,-3.51 14.59,-9.19 19.28,-16.15 5.15,-7.67 7.97,-16.93 7.7,-26.6 -0.25,-9.31 7.09,-17.07 16.4,-17.32 9.31,-0.25 17.07,7.09 17.32,16.4 0.48,16.87 -4.42,32.97 -13.38,46.3 -8.99,13.36 -22.08,24.02 -37.9,29.95l-0.21 0.08 9.19 32.6 4.01 -1.31c18.74,-6.49 35.51,-18.76 49.09,-34.33 15.13,-17.34 26.25,-38.75 31.8,-60.9 5.44,-21.66 5.53,-43.83 -1.18,-63.21 -4.47,-12.93 -12.08,-24.78 -23.24,-34.52 -25.54,-22.29 -51.66,-25.03 -74.07,-16.58 -12.54,4.72 -24.21,12.87 -34.23,23.04l-3.96 4.22zm-32.14 269.9c-4.49,-4.45 -10.73,-7.2 -17.62,-7.2 -6.92,0 -13.19,2.73 -17.69,7.13 -5.12,5 -7.58,11.29 -7.38,18.39 -0.07,6.71 2.72,12.83 7.18,17.27 4.74,4.71 11.19,7.48 17.89,7.34 6.91,0 13.19,-2.81 17.72,-7.34 4.53,-4.53 7.34,-10.81 7.34,-17.72 0,-6.84 -2.57,-13.06 -7.44,-17.87z"/></g><text x="0" y="861.66" fill="#000000" font-size="5px" font-weight="bold" font-family="'Helvetica Neue', Helvetica, Arial-Unicode, Arial, Sans-serif">Created by Rusurinusuhu</text><text x="0" y="866.66" fill="#000000" font-size="5px" font-weight="bold" font-family="'Helvetica Neue', Helvetica, Arial-Unicode, Arial, Sans-serif">from the Noun Project</text></svg>