<svg xmlns="http://www.w3.org/2000/svg" xmlns:xlink="http://www.w3.org/1999/xlink" version="1.1" x="0px" y="0px" viewBox="0 0 100 125" style="enable-background:new 0 0 100 100;" xml:space="preserve"><style type="text/css">
	.st0{fill:none;stroke:#000000;stroke-width:6;stroke-miterlimit:10;}
	.st1{fill:none;stroke:#000000;stroke-width:6;stroke-linecap:round;stroke-miterlimit:10;}
	.st2{fill:none;stroke:#000000;stroke-width:8;stroke-miterlimit:10;}
	.st3{fill:none;stroke:#000000;stroke-width:4;stroke-miterlimit:10;}
	.st4{fill:none;stroke:#000000;stroke-width:4;stroke-linecap:round;stroke-miterlimit:10;}
	.st5{fill:none;stroke:#000000;stroke-width:2;stroke-linecap:round;stroke-miterlimit:10;}
	.st6{fill:none;stroke:#000000;stroke-width:2;stroke-miterlimit:10;}
	.st7{fill:none;stroke:#000000;stroke-width:8;stroke-linecap:round;stroke-miterlimit:10;}
</style><path d="M83,63.5V46.2c0-8-3-15.6-8.5-21.4c-1.8-1.9-3.8-3.5-5.9-4.9c-1.4-0.9-3.3-0.5-4.1,0.9c-0.9,1.4-0.5,3.3,0.9,4.1  c1.7,1.1,3.4,2.4,4.8,4c4.4,4.7,6.8,10.8,6.8,17.3V64c0,0.4,0.1,0.7,0.2,1c-0.1,0.3-0.2,0.6-0.2,1c0,1.7,1.3,3,3,3c2.2,0,4,1.8,4,4  s-1.8,4-4,4H22c-2.2,0-4-1.8-4-4s1.8-4,4-4h47.2c1.7,0,3-1.3,3-3s-1.3-3-3-3H25V46.2c0-6.4,2.4-12.6,6.8-17.3  c4.7-5,11.4-7.9,18.3-7.9h1.7c2,0,4,0.2,6,0.7c0.2,0.1,0.5,0.1,0.7,0.1c1.4,0,2.6-0.9,2.9-2.3c0.2-0.8,0.1-1.6-0.3-2.2  c0.3-0.9,0.4-1.9,0.4-2.8C61.5,8.7,56.8,4,51,4S40.5,8.7,40.5,14.5c0,0.7,0.1,1.3,0.2,2c-5,1.6-9.6,4.4-13.2,8.3  C22,30.6,19,38.2,19,46.2v17.3c-4.1,1.3-7,5.1-7,9.5c0,5.5,4.5,10,10,10h16c0,7.2,5.8,13,13,13s13-5.8,13-13h16c5.5,0,10-4.5,10-10  C90,68.5,87.1,64.7,83,63.5z M51,10c2.5,0,4.5,2,4.5,4.5c0,0.2,0,0.5-0.1,0.7c-0.6-0.1-1.3-0.1-1.9-0.2C53.3,15,53.2,15,53,15h-1.2  h-1.7H49c-0.1,0-0.3,0-0.4,0c-0.7,0-1.4,0.1-2,0.2c0-0.2-0.1-0.5-0.1-0.7C46.5,12,48.5,10,51,10z M51,90c-3.9,0-7-3.1-7-7h14  C58,86.9,54.9,90,51,90z"/><text x="0" y="115" fill="#000000" font-size="5px" font-weight="bold" font-family="'Helvetica Neue', Helvetica, Arial-Unicode, Arial, Sans-serif">Created by praveen patchu</text><text x="0" y="120" fill="#000000" font-size="5px" font-weight="bold" font-family="'Helvetica Neue', Helvetica, Arial-Unicode, Arial, Sans-serif">from the Noun Project</text></svg>